<svg width="768" height="533" viewBox="0 0 768 533" fill="none" preserveAspectRatio="none" xmlns="http://www.w3.org/2000/svg">
<path d="M0 508.067C0.725735 508.302 1.44694 508.55 2.16345 508.812C4.13087 509.513 6.16219 509.622 8.191 509.731H8.19238C10.0665 509.831 11.9384 509.932 13.7558 510.499C22.5091 513.198 31.2625 515.392 40.2525 517.416C43.2881 518.19 46.3238 517.404 49.3594 516.618L49.3608 516.617C49.6368 516.546 49.9128 516.474 50.1888 516.404C52.1051 515.898 53.9575 515.255 55.8099 514.612L55.8114 514.611C60.1332 513.112 64.455 511.612 69.5881 511.848C71.9412 511.932 74.2357 512.058 76.5299 512.184L76.5671 512.186C78.8738 512.312 81.1804 512.439 83.5462 512.523C83.9139 512.55 84.2816 512.584 84.6483 512.618C86.6416 512.805 88.6087 512.989 90.407 511.848C90.8802 511.68 91.8264 511.511 92.2996 511.68C97.6501 513.27 103.374 513.395 109.061 513.519H109.068C112.431 513.593 115.781 513.666 119.033 514.042C119.144 514.042 119.259 514.044 119.376 514.048C119.582 514.055 119.796 514.066 120.013 514.078H120.015C120.724 514.116 121.47 514.156 122.108 514.042C134.174 511.174 145.056 513.03 154.52 518.597C156.853 519.911 159.57 520.725 162.272 521.535C164.773 522.284 167.263 523.03 169.424 524.165C169.471 524.182 169.52 524.2 169.571 524.22L169.719 524.277C170.153 524.445 170.652 524.639 170.843 524.503C176.438 522.65 180.682 524.528 184.859 526.377L184.866 526.38C185.632 526.719 186.397 527.057 187.167 527.371C195.921 530.745 205.147 531.758 213.664 528.721C219.105 526.865 222.891 527.034 227.385 528.89C231.682 530.613 236.435 530.978 241.17 531.342H241.175C244.782 531.619 248.378 531.895 251.753 532.77C254.201 533.442 256.2 532.509 257.987 531.676L257.992 531.674C258.448 531.461 258.891 531.254 259.323 531.083C266.184 527.877 273.991 526.696 282.035 526.359C284.637 526.359 286.766 525.684 288.423 524.334C292.918 520.96 298.122 519.947 303.8 521.803C304.165 521.907 304.529 522.014 304.891 522.119C309.228 523.385 313.41 524.606 317.995 521.803C319.315 520.861 321.455 521.526 323.08 522.031L323.136 522.048C323.239 522.08 323.339 522.111 323.436 522.141C329.824 523.828 336.448 524.503 343.072 523.996C345.637 523.793 348.03 523.1 350.459 522.397L350.462 522.396L350.474 522.393C352.072 521.93 353.686 521.463 355.374 521.128C358.686 520.453 361.525 520.453 365.074 521.466C378.559 525.684 392.517 528.89 407.421 529.227C411.443 529.396 414.992 529.733 418.777 530.745C423.796 532.237 428.629 531.092 433.278 529.99L433.28 529.99C433.89 529.845 434.497 529.702 435.101 529.564C435.653 529.452 436.178 529.265 436.704 529.077C437.756 528.702 438.807 528.327 440.069 528.552C446.397 529.528 452.478 528.475 458.491 527.435H458.495C460.797 527.036 463.09 526.639 465.383 526.359C466.802 526.19 467.985 526.19 469.405 526.19C472.953 526.359 476.265 526.021 479.814 524.84C485.991 522.767 492.587 521.689 499.173 520.612L499.192 520.61C501.175 520.285 503.158 519.961 505.128 519.61C508.249 519.141 510.572 519.649 512.967 520.172L512.971 520.173C514.024 520.403 515.091 520.636 516.247 520.791C521.251 521.362 526.254 520.605 531.258 519.847L531.261 519.847C532.17 519.709 533.08 519.571 533.99 519.441C534.315 519.383 534.639 519.324 534.964 519.265C535.338 519.196 535.712 519.127 536.086 519.057C541.068 518.133 546.073 517.204 551.26 518.091C552.443 518.26 553.863 518.26 554.809 517.923C564.272 514.042 574.682 513.536 585.328 513.198C586.847 513.198 588.078 512.457 589.391 511.666C590.735 510.856 592.166 509.995 594.081 509.824C594.665 509.824 595.249 509.71 595.816 509.599H595.818C596.629 509.44 597.407 509.288 598.103 509.487C601.573 510.459 605.173 510.412 608.767 510.366C612.033 510.324 615.294 510.282 618.448 511.005C625.55 512.581 632.757 512.354 639.929 512.13C643.508 512.017 647.079 511.905 650.623 512.017C651.175 512.074 651.701 512.074 652.209 512.074C653.225 512.074 654.172 512.074 655.118 512.524C658.903 514.211 662.452 514.886 665.528 511.68C666.474 510.667 668.603 510.161 670.259 510.836C673.808 512.017 677.356 511.68 680.905 511.342C681.133 511.342 681.386 511.307 681.648 511.271C682.199 511.195 682.79 511.113 683.271 511.342C687.884 513.755 693.298 514.172 698.666 514.585C701.556 514.808 704.433 515.029 707.165 515.561C716.155 517.416 725.145 517.416 734.372 516.742C736.86 516.58 739.348 516.92 741.862 517.264C744.607 517.639 747.382 518.018 750.222 517.754C754.126 517.416 758.088 517.206 762.051 516.995C764.036 516.889 766.022 516.783 768 516.662V24.9329C767.764 24.8564 767.528 24.7784 767.292 24.6991C766.805 24.5349 766.32 24.3647 765.837 24.1884C763.869 23.4868 761.838 23.3779 759.809 23.2691H759.808C757.934 23.1687 756.062 23.0683 754.244 22.5012C745.491 19.8016 736.737 17.6083 727.748 15.5836C724.711 14.8104 721.675 15.5965 718.639 16.3828C718.363 16.4542 718.087 16.5256 717.811 16.5959C715.896 17.1017 714.045 17.744 712.194 18.3864L712.19 18.3878C707.868 19.8878 703.546 21.3876 698.412 21.1514C696.051 21.0672 693.749 20.941 691.447 20.8147L691.433 20.814C689.126 20.6875 686.82 20.561 684.454 20.4765C684.086 20.4503 683.718 20.416 683.352 20.3817C681.358 20.1953 679.391 20.0115 677.593 21.1514C677.12 21.3201 676.174 21.4889 675.7 21.3201C670.35 19.7303 664.626 19.6052 658.939 19.4812H658.936C655.572 19.4076 652.221 19.3343 648.967 18.958C648.66 18.958 648.328 18.9403 647.987 18.922C647.278 18.8841 646.531 18.8441 645.892 18.958C633.826 21.8263 622.944 19.9704 613.48 14.4025C611.147 13.0886 608.43 12.2749 605.728 11.4656C603.227 10.7161 600.737 9.97048 598.576 8.83468C598.485 8.80223 598.385 8.76355 598.281 8.72329C597.847 8.55482 597.348 8.36108 597.157 8.49723C591.562 10.3496 587.318 8.47161 583.141 6.62323C582.372 6.28298 581.605 5.94382 580.833 5.62907C572.079 2.25462 562.853 1.24228 554.336 4.27929C548.895 6.13524 545.109 5.96652 540.615 4.11057C536.318 2.38674 531.563 2.02185 526.828 1.65842C523.22 1.38148 519.623 1.1054 516.247 0.229948C513.799 -0.441648 511.8 0.490535 510.013 1.32427C509.555 1.53788 509.111 1.74504 508.677 1.91717C501.816 5.1229 494.009 6.30384 485.965 6.64128C483.363 6.64128 481.234 7.31617 479.577 8.66596C475.082 12.0404 469.878 13.0527 464.2 11.1968C463.835 11.0927 463.471 10.9866 463.109 10.8807C458.772 9.61485 454.59 8.39415 450.005 11.1968C448.685 12.1386 446.545 11.4741 444.92 10.9694C444.798 10.9316 444.679 10.8947 444.564 10.8593C438.176 9.17212 431.552 8.49723 424.928 9.0034C422.362 9.20677 419.968 9.9002 417.538 10.6039C415.936 11.068 414.318 11.5364 412.626 11.8717C409.314 12.5466 406.475 12.5466 402.926 11.5342C389.441 7.31617 375.483 4.11045 360.579 3.773C356.557 3.60428 353.008 3.26683 349.223 2.25462C344.204 0.763077 339.369 1.90851 334.72 3.01027C334.11 3.15484 333.503 3.29867 332.899 3.43555C332.347 3.54804 331.822 3.73555 331.296 3.92306C330.244 4.29796 329.193 4.67285 327.931 4.44789C321.603 3.47215 315.522 4.52451 309.509 5.56514L309.505 5.56588C307.203 5.96432 304.91 6.36106 302.617 6.64128C301.198 6.81001 300.015 6.81001 298.595 6.81001C295.047 6.64128 291.735 6.97873 288.186 8.15979C282.009 10.233 275.413 11.3111 268.827 12.3875C266.837 12.7127 264.848 13.0379 262.872 13.3902C259.751 13.8589 257.428 13.3513 255.033 12.8278C253.978 12.5973 252.91 12.3638 251.753 12.2091C246.749 11.6381 241.745 12.3957 236.741 13.1533L236.739 13.1536C235.83 13.2914 234.92 13.4291 234.01 13.5589C233.311 13.6835 232.613 13.813 231.914 13.9427C226.932 14.8676 221.927 15.7965 216.74 14.9087C215.557 14.74 214.137 14.74 213.191 15.0774C203.728 18.958 193.318 19.4642 182.672 19.8016C181.153 19.8016 179.922 20.543 178.609 21.3338C177.265 22.1436 175.834 23.0054 173.919 23.1761C173.336 23.1761 172.752 23.29 172.185 23.4008L172.184 23.4012C171.372 23.56 170.594 23.7122 169.897 23.5135C166.427 22.5413 162.827 22.5877 159.233 22.6339C155.967 22.676 152.706 22.7181 149.552 21.995C142.45 20.4193 135.243 20.6455 128.071 20.8706H128.068C124.49 20.9829 120.92 21.0951 117.377 20.9827C116.825 20.9265 116.299 20.9265 115.791 20.9265C114.775 20.9265 113.828 20.9265 112.882 20.4765C109.097 18.7893 105.548 18.1144 102.472 21.3201C101.526 22.3325 99.397 22.8387 97.7409 22.1638C94.1923 20.9827 90.6436 21.3201 87.0949 21.6576C86.8665 21.6576 86.6136 21.6925 86.352 21.7287C85.8006 21.8048 85.2104 21.8865 84.7291 21.6576C80.1156 19.2447 74.7025 18.8281 69.3343 18.4149L69.3317 18.4145L69.3292 18.4142C66.4408 18.1919 63.5654 17.9707 60.8348 17.4395C51.8449 15.5836 42.8549 15.5836 33.6284 16.2585C31.1401 16.4198 28.6518 16.0797 26.1376 15.7362C23.393 15.3612 20.6175 14.982 17.7776 15.2461C13.8741 15.5836 9.91144 15.7945 5.94876 16.0054C3.96336 16.1111 1.97796 16.2166 0 16.3383V508.067Z" fill="#FFCB66"/>
</svg>
