<svg width="320" height="471" viewBox="0 0 320 471" fill="none" preserveAspectRatio="none" xmlns="http://www.w3.org/2000/svg">
<path d="M0 467.55C0.331299 467.446 0.661621 467.336 0.990723 467.219C5.79858 465.578 9.14355 465.728 13.1152 467.368C16.9119 468.891 21.1128 469.213 25.2971 469.534H25.3015C28.4878 469.779 31.6648 470.023 34.6462 470.797C36.8096 471.39 38.5757 470.566 40.1548 469.83C40.5596 469.641 40.9519 469.458 41.3357 469.306C47.3979 466.473 54.2961 465.429 61.4036 465.131C63.7029 465.131 65.5842 464.535 67.0476 463.342C71.0193 460.36 75.6182 459.466 80.6353 461.105C80.9578 461.198 81.2791 461.291 81.5994 461.385C85.4314 462.504 89.1265 463.582 93.1777 461.105C94.3445 460.273 96.2351 460.861 97.6709 461.307L97.9856 461.404C103.63 462.895 109.483 463.491 115.336 463.044C117.603 462.864 119.719 462.251 121.865 461.63C123.281 461.22 124.711 460.805 126.206 460.509C129.133 459.913 131.641 459.913 134.777 460.807C146.692 464.535 159.025 467.368 172.195 467.666C175.749 467.815 178.884 468.113 182.229 469.008C186.664 470.326 190.936 469.314 195.044 468.34C195.583 468.212 196.119 468.085 196.653 467.964C196.833 467.927 197.01 467.882 197.184 467.83C197.483 467.742 197.776 467.638 198.07 467.533C198.999 467.202 199.928 466.871 201.042 467.069C206.634 467.932 212.008 467.002 217.32 466.082L217.339 466.079C219.368 465.728 221.389 465.378 223.41 465.131C224.664 464.982 225.709 464.982 226.964 464.982C230.099 465.131 233.026 464.833 236.161 463.789C241.62 461.957 247.448 461.005 253.267 460.053C253.984 459.936 254.702 459.819 255.418 459.7C256.458 459.528 257.495 459.352 258.529 459.168C261.287 458.753 263.339 459.202 265.456 459.664L265.462 459.666C266.392 459.869 267.334 460.075 268.354 460.211C272.776 460.716 277.198 460.046 281.62 459.376C282.424 459.255 283.228 459.133 284.032 459.018C284.639 458.91 285.247 458.797 285.855 458.684L285.883 458.679C290.286 457.862 294.708 457.041 299.292 457.825C300.337 457.975 301.591 457.975 302.427 457.677C307.978 455.4 313.896 454.438 320 453.961V3.25845C313.949 1.76992 307.794 1.71865 302.009 3.78152C297.201 5.42153 293.857 5.27249 289.885 3.63235C286.089 2.1094 281.888 1.78677 277.703 1.46548C274.515 1.22085 271.337 0.976832 268.354 0.203151C266.19 -0.390233 264.425 0.433497 262.845 1.17031L262.84 1.17251C262.438 1.3605 262.047 1.54275 261.664 1.69412C255.602 4.527 248.704 5.5707 241.596 5.8688C239.297 5.8688 237.416 6.46524 235.952 7.65798C231.981 10.6399 227.382 11.5344 222.365 9.89443C222.042 9.80239 221.721 9.70864 221.401 9.61514C217.569 8.49649 213.874 7.41775 209.822 9.89443C208.656 10.7267 206.765 10.1394 205.329 9.69351L205.014 9.59622C199.37 8.10525 193.517 7.50894 187.664 7.9562C185.397 8.13589 183.282 8.74844 181.135 9.37039C179.719 9.78054 178.289 10.1945 176.794 10.4909C173.867 11.0872 171.359 11.0872 168.223 10.1927C156.308 6.46524 143.975 3.63235 130.805 3.33425C127.251 3.18508 124.116 2.88687 120.771 1.99234C116.336 0.674342 112.064 1.68655 107.956 2.66018L107.941 2.66384C107.407 2.79031 106.876 2.91604 106.347 3.03604C105.86 3.1354 105.395 3.30105 104.93 3.4667C104.001 3.798 103.072 4.12942 101.958 3.93057C96.3662 3.06839 90.9934 3.99807 85.6799 4.91775C83.644 5.27017 81.6172 5.621 79.5901 5.8688C78.3359 6.01797 77.2908 6.01797 76.0364 6.01797C72.9009 5.8688 69.9741 6.16702 66.8386 7.21072C61.3809 9.04251 55.5537 9.99514 49.7351 10.9463L49.7332 10.9467C47.9749 11.234 46.2175 11.5213 44.4714 11.8327C41.7134 12.2467 39.6609 11.7982 37.5442 11.3356C36.6125 11.132 35.6685 10.9257 34.6465 10.789C30.2249 10.2843 25.8032 10.9538 21.3804 11.6236C20.5764 11.7454 19.7722 11.8671 18.9683 11.9817C18.3513 12.0918 17.7341 12.2063 17.1167 12.3209C12.7141 13.1382 8.2915 13.959 3.7085 13.1746C2.66333 13.0254 1.40894 13.0254 0.572754 13.3236C0.382324 13.4018 0.191406 13.4783 0 13.5534V467.55Z" fill="#FFCB66"/>
</svg>
