<svg width="50" height="50" viewBox="0 0 50 50" fill="none" xmlns="http://www.w3.org/2000/svg">
<circle cx="25" cy="25" r="15" fill="white" />
<path d="M25 0.37207C11.2142 0.37207 0 11.1961 0 24.5C0 37.8039 11.2142 48.6279 25 48.6279C38.7858 48.6279 50 37.8039 50 24.5C50 11.1961 38.7858 0.37207 25 0.37207ZM34.9386 25.3453L20.3553 34.3933C20.1844 34.5002 19.987 34.5533 19.7917 34.5533C19.6208 34.5533 19.4479 34.512 19.2933 34.4306C18.9575 34.2539 18.75 33.9161 18.75 33.5479V15.452C18.75 15.0839 18.9575 14.7461 19.2933 14.5694C19.6229 14.3946 20.0358 14.4054 20.3553 14.6067L34.9386 23.6547C35.2356 23.8392 35.4167 24.1583 35.4167 24.5C35.4167 24.8416 35.2356 25.1607 34.9386 25.3453Z" fill="#FFA800"/>
</svg>
