<svg width="123" height="47" viewBox="0 0 123 47" fill="none" xmlns="http://www.w3.org/2000/svg">
<path opacity="0.2" d="M23.4536 46.9747C36.3716 46.9747 46.8438 36.4761 46.8438 23.5253C46.8438 10.5745 36.3716 0.0758057 23.4536 0.0758057C10.5356 0.0758057 0.0634766 10.5745 0.0634766 23.5253C0.0634766 36.4761 10.5356 46.9747 23.4536 46.9747Z" fill="#242A30"/>
<path d="M38.0725 12.8112V10.0822C38.0725 8.56606 36.8628 7.25209 35.2497 7.25209C34.4431 7.25209 33.7374 7.55531 33.2333 8.16176C30.3095 6.24133 26.8816 5.33167 23.4537 5.33167C20.0258 5.33167 16.598 6.34241 13.6742 8.16176C13.1701 7.55531 12.3636 7.25209 11.6578 7.25209C10.1455 7.25209 8.83484 8.46501 8.83484 9.98114V12.7101C6.61681 15.8435 5.30615 19.5833 5.30615 23.4241C5.30615 33.4306 13.4725 41.6177 23.4537 41.6177C33.4348 41.6177 41.6012 33.4306 41.6012 23.4241C41.6012 19.6844 40.2906 15.9446 38.0725 12.8112ZM37.9717 30.9037C37.9717 33.1274 36.157 35.0478 33.8382 35.0478H26.3775L28.5955 29.4887H30.7128C31.5193 29.2865 32.225 28.579 32.4267 27.7704V22.2112C32.225 21.2005 31.3177 20.493 30.2087 20.3919H27.789C26.5791 20.3919 25.5709 21.4026 25.5709 22.7166H25.4701V28.8822H21.1349V22.2112C20.9333 21.2005 20.0258 20.493 18.9168 20.3919H16.4971C15.2873 20.3919 14.2791 21.4026 14.2791 22.7166H14.1783V27.265H14.2791C14.2791 28.2757 14.9848 29.2865 15.993 29.4887H17.9086L20.0258 35.0478H12.7668C10.5488 35.0478 8.63325 33.2284 8.63325 30.9037V15.0349L14.1783 12.0026H32.3259L37.7702 15.0349L37.9717 30.9037Z" fill="#242A30"/>
<path d="M14.38 12.0027L8.83496 15.035V30.9038C8.83496 33.1274 10.6497 35.0479 12.9685 35.0479H20.2276L18.1104 29.4887H16.1948C15.1867 29.1855 14.4808 28.2758 14.4808 27.2651H14.38V22.7167H14.4808C14.4808 21.5038 15.4891 20.392 16.6989 20.392H19.1186C20.1268 20.392 21.0342 21.2005 21.3366 22.2113V28.8823H25.6719V22.7167H25.7727C25.7727 21.5038 26.7809 20.392 27.9907 20.392H30.4104C31.4186 20.392 32.3259 21.2005 32.6284 22.2113V27.7704C32.4267 28.579 31.8219 29.2866 30.9145 29.4887H28.7973L26.5792 35.0479H34.0399C36.2579 35.0479 38.1735 33.2285 38.1735 30.9038V14.9339L32.7293 11.9016H14.38V12.0027Z" fill="#F6F6F6"/>
<path d="M53.4978 35.4522V27.2651H57.5306C57.4298 28.478 57.9338 29.691 58.7404 30.6006C59.4461 31.3082 60.2527 31.6114 61.2609 31.6114C61.9666 31.6114 62.6724 31.4092 63.0757 30.9038C63.5798 30.3985 63.7813 29.792 63.7813 29.0845C63.7813 28.377 63.5798 27.6694 63.0757 27.2651C62.2691 26.5576 61.3617 25.9512 60.4544 25.5469C58.3372 24.6372 56.5223 23.5254 54.8084 22.0092C53.8002 20.8974 53.1953 19.3813 53.2961 17.8651C53.1953 16.0458 53.901 14.2264 55.2117 13.0135C56.4215 11.9017 58.0346 11.2952 59.6478 11.2952C61.3617 11.1942 63.0757 12.1039 64.0839 13.5189V11.4974H68.1166V18.7748H64.0839C63.983 17.7641 63.5797 16.8544 62.8739 16.1468C62.269 15.5404 61.4625 15.2372 60.656 15.2372C60.051 15.2372 59.4462 15.4393 58.9421 15.8436C58.5388 16.1469 58.2363 16.6522 58.2363 17.2587C58.2363 17.7641 58.4379 18.2694 58.8412 18.6737C59.8494 19.4823 60.9584 20.0888 62.1683 20.4931C63.5797 21.0996 64.8904 21.8071 66.201 22.6157C67.1084 23.2221 67.9149 24.1318 68.419 25.1426C69.0239 26.2544 69.2256 27.4673 69.2256 28.6802C69.3265 30.7017 68.6207 32.6221 67.2092 34.0372C65.8986 35.2501 64.1846 35.8565 62.3698 35.8565C60.4543 35.9576 58.6396 35.149 57.5306 33.5318V35.5533H53.5986L53.4978 35.4522Z" fill="#242A30"/>
<path d="M70.1333 35.4521V31.5102H72.9562V15.6414H70.1333V11.5984H91.2046V19.179H86.5668V15.6414H79.2071V21.2005H85.1555V25.2435H79.2071V31.5102H86.5668V27.8715H91.2046V35.4521H70.1333Z" fill="#242A30"/>
<path d="M122.963 15.5403V11.4973H112.478L107.941 25.5468L103.303 11.4973H92.9185V15.5403H95.1364V31.4091H92.9185V35.3511H101.69V31.4091H99.4717V15.5403L106.025 35.4521H109.856L116.309 15.5403H116.409V31.4091H114.191V35.3511H122.963V31.4091H120.745V15.5403H122.963Z" fill="#242A30"/>
</svg>
